<svg width="20" height="20" viewBox="0 0 20 20" fill="none" xmlns="http://www.w3.org/2000/svg">
<rect width="20" height="20" fill="none"/>
<path d="M9.10128 1C8.60519 1 8.20256 1.4032 8.20256 1.9V9.09996H5.05704C4.93786 9.09996 4.82357 9.14737 4.73929 9.23176C4.65502 9.31615 4.60768 9.43061 4.60768 9.54996C4.6077 9.6693 4.65505 9.78374 4.73933 9.86812C4.74831 9.87731 4.75768 9.8861 4.76741 9.89449L9.3558 14.2275L9.38564 14.2556C9.55199 14.4122 9.77165 14.4996 10 14.4999C10.2283 14.4996 10.448 14.4122 10.6144 14.2556L10.6266 14.2451C10.6296 14.2416 10.6325 14.238 10.6354 14.2345L15.2221 9.90328C15.2312 9.89543 15.2399 9.88722 15.2484 9.87867L15.2554 9.87339C15.2572 9.87165 15.2589 9.86989 15.2607 9.86812C15.3449 9.78374 15.3923 9.6693 15.3923 9.54996C15.3923 9.43061 15.345 9.31615 15.2607 9.23176C15.1764 9.14737 15.0621 9.09996 14.943 9.09996H11.7974V1.9C11.7974 1.4032 11.3948 1 10.8987 1H10H9.10128ZM1.91152 17.1999C1.79243 17.1982 1.67419 17.2203 1.56368 17.2647C1.45316 17.3092 1.35258 17.3752 1.26776 17.459C1.18295 17.5427 1.11561 17.6425 1.06964 17.7525C1.02367 17.8626 1 17.9806 1 18.0999C1 18.2192 1.02367 18.3373 1.06964 18.4473C1.11561 18.5573 1.18295 18.6571 1.26776 18.7409C1.35258 18.8246 1.45316 18.8906 1.56368 18.9351C1.67419 18.9796 1.79243 19.0016 1.91152 18.9999H18.0885C18.2076 19.0016 18.3258 18.9796 18.4363 18.9351C18.5468 18.8906 18.6474 18.8246 18.7322 18.7409C18.817 18.6571 18.8844 18.5573 18.9304 18.4473C18.9763 18.3373 19 18.2192 19 18.0999C19 17.9806 18.9763 17.8626 18.9304 17.7525C18.8844 17.6425 18.817 17.5427 18.7322 17.459C18.6474 17.3752 18.5468 17.3092 18.4363 17.2647C18.3258 17.2203 18.2076 17.1982 18.0885 17.1999H1.91152Z" fill="#7D00FF"/>
</svg>
