<svg width="19px" height="20px" viewBox="0 0 19 20" version="1.1" xmlns="http://www.w3.org/2000/svg" xmlns:xlink="http://www.w3.org/1999/xlink">
    <g id="Page-1" stroke="none" stroke-width="1" fill="none" fill-rule="evenodd">
        <g id="SEP-6-Demo-–--Additional-states" transform="translate(-1075.000000, -846.000000)" fill="#7D00FF" fill-rule="nonzero">
            <g id="Group-11" transform="translate(1055.000000, 840.000000)">
                <g id="Group-5" transform="translate(20.000000, 6.417595)">
                    <path d="M9.5,12.6666667 C11.2489017,12.6666667 12.6666667,11.2489017 12.6666667,9.5 C12.6666667,7.75109829 11.2489017,6.33333333 9.5,6.33333333 C7.75109829,6.33333333 6.33333333,7.75109829 6.33333333,9.5 C6.33333333,11.2489017 7.75109829,12.6666667 9.5,12.6666667 Z M9.5,11.0833333 C8.62554915,11.0833333 7.91666667,10.3744509 7.91666667,9.5 C7.91666667,8.62554915 8.62554915,7.91666667 9.5,7.91666667 C10.3744509,7.91666667 11.0833333,8.62554915 11.0833333,9.5 C11.0833333,10.3744509 10.3744509,11.0833333 9.5,11.0833333 Z" id="Oval"></path>
                    <path d="M16.0698822,6.89951329 C16.1639834,7.03823812 16.321267,7.1243201 16.4904167,7.125 L16.625,7.125 C17.9366763,7.125 19,8.18832372 19,9.5 C19,10.8116763 17.9366763,11.875 16.625,11.875 L16.5569074,11.8749937 C16.3518092,11.8758117 16.166781,11.9983469 16.0859857,12.1868624 L16.0825995,12.1946476 C15.9976632,12.3870986 16.0384184,12.6118696 16.1793762,12.7560405 L16.2265647,12.8032292 C16.6725352,13.2487038 16.9231205,13.8531947 16.9231205,14.4835417 C16.9231205,15.1138886 16.6725352,15.7183796 16.2271875,16.1632314 C15.7817129,16.6092019 15.177222,16.8597872 14.546875,16.8597872 C13.916528,16.8597872 13.3120371,16.6092019 12.8668738,16.1635429 L12.8255819,16.1221829 C12.675203,15.9750851 12.450432,15.9343299 12.2501957,16.0226524 C12.0616803,16.1034476 11.939145,16.2884758 11.9383333,16.4904167 L11.9383333,16.625 C11.9383333,17.9366763 10.8750096,19 9.56333333,19 C8.25165705,19 7.18833333,17.9366763 7.18833333,16.625 L7.18854982,16.5722628 C7.18360876,16.361025 7.05004013,16.1742763 6.80535244,16.0825995 C6.61290137,15.9976632 6.38813037,16.0384184 6.24395954,16.1793762 L6.19677083,16.2265647 C5.75129622,16.6725352 5.1468053,16.9231205 4.51645833,16.9231205 C3.88611137,16.9231205 3.28162044,16.6725352 2.8367686,16.2271875 C2.39079813,15.7817129 2.14021279,15.177222 2.14021279,14.546875 C2.14021279,13.916528 2.39079813,13.3120371 2.83645713,12.8668738 L2.87781712,12.8255819 C3.02491494,12.675203 3.06567012,12.450432 2.97734764,12.2501957 C2.89655235,12.0616803 2.71152415,11.939145 2.50958333,11.9383333 L2.375,11.9383333 C1.06332372,11.9383333 0,10.8750096 0,9.56333333 C0,8.25165705 1.06332372,7.18833333 2.375,7.18833333 L2.4277372,7.18854982 C2.63897496,7.18360876 2.82572369,7.05004013 2.91740045,6.80535244 C3.00233679,6.61290137 2.96158161,6.38813037 2.8206238,6.24395954 L2.77343527,6.19677083 C2.32746479,5.75129622 2.07687946,5.1468053 2.07687946,4.51645833 C2.07687946,3.88611137 2.32746479,3.28162044 2.7728125,2.8367686 C3.21828711,2.39079813 3.82277804,2.14021279 4.453125,2.14021279 C5.08347196,2.14021279 5.68796289,2.39079813 6.1331262,2.83645713 L6.17441809,2.87781712 C6.32479704,3.02491494 6.54956803,3.06567012 6.7420191,2.98073379 C6.79274262,2.95834748 6.84553681,2.94141305 6.89951329,2.93011782 C7.03823812,2.83601659 7.1243201,2.67873297 7.125,2.50958333 L7.125,2.375 C7.125,1.06332372 8.18832372,0 9.5,0 C10.8116763,0 11.875,1.06332372 11.875,2.375 L11.8749937,2.44309259 C11.8758117,2.64819082 11.9983469,2.83321902 12.1946476,2.91740045 C12.3870986,3.00233679 12.6118696,2.96158161 12.7560405,2.8206238 L12.8032292,2.77343527 C13.2487038,2.32746479 13.8531947,2.07687946 14.4835417,2.07687946 C15.1138886,2.07687946 15.7183796,2.32746479 16.1632314,2.7728125 C16.6092019,3.21828711 16.8597872,3.82277804 16.8597872,4.453125 C16.8597872,5.08347196 16.6092019,5.68796289 16.1635429,6.1331262 L16.1221829,6.17441809 C15.9750851,6.32479704 15.9343299,6.54956803 16.0192662,6.7420191 C16.0416525,6.79274262 16.058587,6.84553681 16.0698822,6.89951329 Z M16.55375,10.2916667 L16.625,10.2916667 C17.0622254,10.2916667 17.4166667,9.93722543 17.4166667,9.5 C17.4166667,9.06277457 17.0622254,8.70833333 16.625,8.70833333 L16.4872593,8.70832704 C15.6510895,8.70499211 14.8967438,8.2054254 14.5673476,7.43686239 C14.5386769,7.36996647 14.519433,7.29959043 14.5100292,7.2277472 C14.2477532,6.47956826 14.4297422,5.64033194 14.9964571,5.06104046 L15.0442686,5.01322917 C15.1929254,4.86473763 15.2764539,4.66324065 15.2764539,4.453125 C15.2764539,4.24300935 15.1929254,4.04151237 15.0436458,3.89239806 C14.8951543,3.74374124 14.6936573,3.66021279 14.4835417,3.66021279 C14.273426,3.66021279 14.071929,3.74374124 13.9231262,3.89270954 L13.8694181,3.94634955 C13.2563347,4.54605603 12.3399606,4.71221177 11.5631376,4.36931903 C10.7945746,4.03992287 10.2950079,3.28557714 10.2916667,2.44625 L10.2916667,2.375 C10.2916667,1.93777457 9.93722543,1.58333333 9.5,1.58333333 C9.06277457,1.58333333 8.70833333,1.93777457 8.70833333,2.375 L8.70832704,2.51274075 C8.70499211,3.34891047 8.2054254,4.1032562 7.43686239,4.43265236 C7.36996647,4.46132309 7.29959043,4.48056697 7.2277472,4.48997082 C6.47956826,4.75224679 5.64033194,4.57025776 5.06104046,4.00354287 L5.01322917,3.9557314 C4.86473763,3.80707457 4.66324065,3.72354613 4.453125,3.72354613 C4.24300935,3.72354613 4.04151237,3.80707457 3.89239806,3.95635417 C3.74374124,4.1048457 3.66021279,4.30634268 3.66021279,4.51645833 C3.66021279,4.72657399 3.74374124,4.92807096 3.89270954,5.0768738 L3.94634955,5.13058191 C4.54605603,5.74366529 4.71221177,6.66003936 4.38467441,7.39826836 C4.08732311,8.20675684 3.3259629,8.75130586 2.44625,8.77166667 L2.375,8.77166667 C1.93777457,8.77166667 1.58333333,9.12610791 1.58333333,9.56333333 C1.58333333,10.0005588 1.93777457,10.355 2.375,10.355 L2.51274075,10.3550063 C3.34891047,10.3583412 4.1032562,10.8579079 4.42926621,11.6186858 C4.7755451,12.403294 4.60938937,13.319668 4.00354287,13.9389595 L3.9557314,13.9867708 C3.80707457,14.1352624 3.72354613,14.3367593 3.72354613,14.546875 C3.72354613,14.7569907 3.80707457,14.9584876 3.95635417,15.1076019 C4.1048457,15.2562588 4.30634268,15.3397872 4.51645833,15.3397872 C4.72657399,15.3397872 4.92807096,15.2562588 5.0768738,15.1072905 L5.13058191,15.0536505 C5.74366529,14.453944 6.66003936,14.2877882 7.39826836,14.6153256 C8.20675684,14.9126769 8.75130586,15.6740371 8.77166667,16.55375 L8.77166667,16.625 C8.77166667,17.0622254 9.12610791,17.4166667 9.56333333,17.4166667 C10.0005588,17.4166667 10.355,17.0622254 10.355,16.625 L10.3550063,16.4872593 C10.3583412,15.6510895 10.8579079,14.8967438 11.6186858,14.5707338 C12.403294,14.2244549 13.319668,14.3906106 13.9389595,14.9964571 L13.9867708,15.0442686 C14.1352624,15.1929254 14.3367593,15.2764539 14.546875,15.2764539 C14.7569907,15.2764539 14.9584876,15.1929254 15.1076019,15.0436458 C15.2562588,14.8951543 15.3397872,14.6936573 15.3397872,14.4835417 C15.3397872,14.273426 15.2562588,14.071929 15.1072905,13.9231262 L15.0536505,13.8694181 C14.4549337,13.2573465 14.2883379,12.3429846 14.6323568,11.5592383 C14.9626312,10.7928848 15.7158436,10.2950022 16.55375,10.2916667 Z" id="Path"></path>
                </g>
            </g>
        </g>
    </g>
</svg>